<?xml version="1.0" encoding="UTF-8" standalone="no"?>
<!DOCTYPE svg PUBLIC "-//W3C//DTD SVG 1.1//EN" "http://www.w3.org/Graphics/SVG/1.1/DTD/svg11.dtd">
<svg width="100%" height="100%" viewBox="0 0 1000 1000" version="1.1" xmlns="http://www.w3.org/2000/svg" xmlns:xlink="http://www.w3.org/1999/xlink" xml:space="preserve" xmlns:serif="http://www.serif.com/" style="fill-rule:evenodd;clip-rule:evenodd;stroke-linecap:round;stroke-linejoin:round;stroke-miterlimit:1.5;">
    <path d="M895.804,600.593C895.804,600.593 903.742,664.693 844.035,723.734C773.838,793.148 724.469,782.693 724.469,782.693L209.79,782.693L209.79,600.593L895.804,600.593Z" style="fill:none;stroke:currentColor;stroke-width:60px;"/>
    <path d="M82.495,637.408C82.495,637.408 78.107,674.285 111.115,708.252C149.922,748.187 209.79,752.444 209.79,752.444L209.79,637.408L82.495,637.408Z" style="fill:none;stroke:currentColor;stroke-width:60px;"/>
    <path d="M674.278,783.253L742.407,970.188L317.443,970.188L373.43,783.253L674.278,783.253Z" style="fill:none;stroke:currentColor;stroke-width:60px;"/>
    <path d="M415.801,233.604L895.476,344.924L870.384,447.621L390.044,336.146L389.961,336.474C350.563,326.366 312.74,313.528 301.492,351.686C295.253,372.853 308.824,388.54 328.423,398.582L308.457,480.1L164.373,447.621L184.364,372.286C200.89,360.708 222.125,347.979 224.8,333.07C227.087,320.319 216.834,308.09 203.227,289.716L233.987,154.029C270.766,-10.343 392.008,6.34 500,104.548C446.738,83.902 353.346,89.302 343.609,162.8C336.158,198.61 341.27,206.924 364.039,220.295L415.844,233.431L415.801,233.604Z" style="fill:none;stroke:currentColor;stroke-width:60px;"/>
</svg>
